<svg version="1.2" xmlns="http://www.w3.org/2000/svg" viewBox="0 0 32 32" width="2000" height="2000">
	<title>nodeJs-svg</title>
	<style>
		.s0 { fill: #8cc84b } 
	</style>
	<path id="Layer" fill-rule="evenodd" class="s0" d="m14.7 0.4c0.8-0.4 1.8-0.4 2.6 0l11.9 6.8c0.7 0.4 1.2 1.2 1.2 2.1v13.5c0 0.9-0.5 1.7-1.3 2.1l-11.9 6.7q-0.3 0.2-0.6 0.3-0.4 0.1-0.7 0.1-0.3-0.1-0.7-0.2-0.3-0.1-0.6-0.2l-3.6-2.1c-0.2-0.1-0.5-0.3-0.7-0.5 0.2-0.2 0.5-0.2 0.7-0.3 0.5-0.2 0.9-0.4 1.4-0.7 0.1 0 0.2 0 0.3 0.1l3.1 1.7c0.2 0.1 0.4 0 0.6-0.1l11.7-6.6c0.1-0.1 0.2-0.2 0.2-0.4v-13.4c0-0.1-0.1-0.3-0.3-0.4l-11.8-6.7q-0.1 0-0.1 0-0.1 0-0.1 0-0.1 0-0.2 0 0 0-0.1 0l-11.8 6.7c-0.2 0.1-0.3 0.3-0.3 0.4v13.4c0 0.2 0.1 0.3 0.3 0.4l3.1 1.8c0.6 0.3 1.3 0.5 2 0.2q0.2 0 0.4-0.2 0.2-0.1 0.3-0.3 0.1-0.2 0.2-0.4 0.1-0.2 0.1-0.5v-13.3c0-0.2 0.1-0.3 0.3-0.3h1.6c0.2 0 0.3 0.2 0.3 0.4v13.4c0 1.2-0.5 2.5-1.6 3-1.4 0.7-3 0.6-4.4-0.1l-3.4-1.9c-0.8-0.4-1.3-1.2-1.3-2.1v-13.5q0-0.3 0.1-0.7 0.1-0.3 0.2-0.6 0.2-0.2 0.5-0.5 0.2-0.2 0.5-0.4zm3.4 9.4c1.7-0.1 3.6-0.1 5.2 0.8 1.2 0.6 1.8 2 1.8 3.3 0 0.2-0.2 0.3-0.4 0.3q-0.7 0-1.5 0c-0.2 0-0.3-0.2-0.3-0.4-0.2-0.6-0.5-1.2-1.1-1.6-0.9-0.4-2-0.4-3-0.4-0.8 0.1-1.5 0.1-2.2 0.6-0.4 0.3-0.6 1-0.4 1.5 0.1 0.4 0.6 0.5 0.9 0.6 2.1 0.5 4.3 0.5 6.4 1.2 0.8 0.3 1.6 0.9 1.9 1.7 0.4 1.2 0.2 2.7-0.6 3.6-0.7 0.8-1.7 1.2-2.7 1.4-1.3 0.3-2.7 0.3-4 0.2-1.3-0.1-2.6-0.5-3.6-1.3-0.8-0.7-1.2-1.9-1.2-3 0.1-0.1 0.2-0.3 0.4-0.3h1.5c0.2 0 0.4 0.2 0.4 0.4 0.1 0.6 0.3 1.2 0.8 1.6 1.1 0.7 2.3 0.6 3.5 0.6 1 0 2.1 0 2.9-0.7 0.4-0.3 0.5-1 0.4-1.5-0.1-0.4-0.6-0.6-1-0.8-2.1-0.6-4.3-0.4-6.3-1.1-0.8-0.3-1.6-0.9-2-1.7-0.4-1.2-0.2-2.7 0.7-3.6 0.9-0.9 2.3-1.3 3.5-1.4z"/>
</svg>