<svg version="1.2" xmlns="http://www.w3.org/2000/svg" viewBox="0 0 235 88" width="235" height="88">
	<title>miniLogo-svg</title>
	<defs>
		<clipPath clipPathUnits="userSpaceOnUse" id="cp1">
			<path d="m-0.48 52.95h8.64v8.72h-8.64z"/>
		</clipPath>
	</defs>
	<style>
		.s0 { fill: #4c00a4 } 
		.s1 { fill: #8300c4 } 
		.s2 { fill: #ab00ff } 
		.s3 { fill: #ffffff } 
	</style>
	<g id="Layer">
		<g id="Layer">
			<g id="Layer">
				<path id="Layer" class="s0" d="m45.7 27l-14.8 34.3h-7.8l-14.8-34.3h8.6l10.4 24.5 10.6-24.5z"/>
			</g>
		</g>
	</g>
	<g id="Layer">
		<g id="Layer">
			<g id="Layer">
				<path id="Layer" class="s1" d="m60.6 61.8q-4.1 0-7.9-1-3.8-1.2-6.1-2.9l2.7-6q2.2 1.6 5.3 2.6 3 1 6 1 3.4 0 5-1 1.6-1 1.6-2.7 0-1.2-0.9-2-1-0.8-2.5-1.3-1.5-0.5-4-1.1-3.9-0.9-6.4-1.8-2.5-1-4.3-3-1.8-2.1-1.8-5.5 0-3 1.6-5.4 1.6-2.4 4.9-3.9 3.2-1.4 7.9-1.4 3.3 0 6.4 0.8 3.2 0.8 5.5 2.3l-2.4 6q-4.8-2.7-9.5-2.7-3.3 0-4.9 1.1-1.6 1-1.6 2.8 0 1.8 1.8 2.6 1.8 0.9 5.6 1.7 3.9 0.9 6.4 1.9 2.5 0.9 4.3 2.9 1.8 2 1.8 5.4 0 3-1.7 5.4-1.6 2.4-4.9 3.8-3.2 1.4-7.9 1.4z"/>
			</g>
		</g>
	</g>
	<g id="Layer">
		<g id="Layer">
			<g id="Layer">
				<path id="Layer" class="s2" d="m102.1 61.3l-8.3-11.9-8.1 11.9h-9.1l12.7-17.5-12.1-16.8h9l7.9 11.1 7.7-11.1h8.6l-11.9 16.6 12.7 17.7z"/>
			</g>
		</g>
	</g>
	<g id="Layer">
		<g id="Layer">
			<g id="Layer">
				<path id="Layer" fill-rule="evenodd" class="s3" d="m129.5 35.3q3.6 0 6.5 1.7 3 1.6 4.6 4.6 1.7 3 1.7 6.8 0 3.9-1.7 6.8-1.6 3-4.5 4.7-2.9 1.6-6.6 1.6-3.1 0-5.7-1.3-2.5-1.3-4.1-3.8v14.3h-3.5v-35.2h3.4v5.1q1.5-2.5 4.1-3.9 2.6-1.4 5.8-1.4zm-0.3 23.1q2.7 0 4.9-1.2 2.2-1.3 3.5-3.6 1.2-2.3 1.2-5.2 0-2.9-1.2-5.2-1.3-2.3-3.5-3.6-2.2-1.2-4.9-1.2-2.7 0-4.9 1.2-2.1 1.3-3.4 3.6-1.2 2.3-1.2 5.2 0 2.9 1.2 5.2 1.3 2.3 3.4 3.6 2.2 1.2 4.9 1.2z"/>
			</g>
		</g>
	</g>
	<g id="Layer">
		<g id="Layer">
			<g id="Layer">
				<path id="Layer" class="s3" d="m149.4 25h3.5v36.3h-3.5z"/>
			</g>
		</g>
	</g>
	<g id="Layer">
		<g id="Layer">
			<g id="Layer">
				<path id="Layer" fill-rule="evenodd" class="s3" d="m173.1 61.5q-3.8 0-6.7-1.7-3-1.7-4.7-4.7-1.8-2.9-1.8-6.7 0-3.8 1.8-6.8 1.7-2.9 4.7-4.6 2.9-1.7 6.7-1.7 3.7 0 6.7 1.7 2.9 1.7 4.6 4.6 1.7 3 1.7 6.8 0 3.8-1.7 6.7-1.7 3-4.6 4.7-3 1.7-6.7 1.7zm0-3.1q2.7 0 4.9-1.2 2.2-1.3 3.4-3.6 1.2-2.3 1.2-5.2 0-2.9-1.2-5.2-1.2-2.3-3.4-3.6-2.2-1.2-4.9-1.2-2.8 0-5 1.2-2.1 1.3-3.4 3.6-1.2 2.3-1.2 5.2 0 2.9 1.2 5.2 1.3 2.3 3.4 3.6 2.2 1.2 5 1.2z"/>
			</g>
		</g>
	</g>
	<g id="Layer">
		<g id="Layer">
			<g id="Layer">
				<path id="Layer" class="s3" d="m196.5 40.6q1.2-2.6 3.7-3.9 2.4-1.4 6-1.4v3.4h-0.9q-4 0-6.3 2.5-2.3 2.4-2.3 6.9v13.2h-3.5v-25.8h3.3z"/>
			</g>
		</g>
	</g>
	<g id="Layer">
		<g id="Layer">
			<g id="Layer">
				<path id="Layer" fill-rule="evenodd" class="s3" d="m235.2 49.5h-21.5q0.3 4 3.1 6.4 2.8 2.5 7 2.5 2.4 0 4.4-0.8 2-0.9 3.5-2.6l1.9 2.3q-1.7 2-4.2 3.1-2.6 1.1-5.7 1.1-4 0-7-1.7-3.1-1.7-4.8-4.7-1.7-2.9-1.7-6.7 0-3.8 1.7-6.8 1.6-2.9 4.5-4.6 2.8-1.7 6.4-1.7 3.6 0 6.4 1.7 2.8 1.7 4.4 4.6 1.7 3 1.7 6.8zm-12.5-11.2q-3.7 0-6.2 2.4-2.5 2.4-2.8 6.2h18.2q-0.3-3.8-2.9-6.2-2.5-2.4-6.3-2.4z"/>
			</g>
		</g>
	</g>
	<g id="Clip-Path" clip-path="url(#cp1)">
		<g id="Layer">
			<path id="Layer" class="s3" d="m-0.5 52.9h8.7v8.8h-8.7z"/>
		</g>
	</g>
</svg>