<svg xmlns="http://www.w3.org/2000/svg" xmlns:xlink="http://www.w3.org/1999/xlink" width="346" zoomAndPan="magnify" viewBox="0 0 259.5 86.999996" height="116" preserveAspectRatio="xMidYMid meet" version="1.0"><defs><g/><clipPath id="a9c76fb133"><path d="M 5.519531 51.945312 L 14.15625 51.945312 L 14.15625 60.667969 L 5.519531 60.667969 Z M 5.519531 51.945312 " clip-rule="nonzero"/></clipPath></defs><g fill="#4c00a4" fill-opacity="1"><g transform="translate(14.76635, 60.253168)"><g><path d="M 36.96875 -34.234375 L 22.15625 0 L 14.328125 0 L -0.4375 -34.234375 L 8.125 -34.234375 L 18.53125 -9.78125 L 29.09375 -34.234375 Z M 36.96875 -34.234375 "/></g></g></g><g fill="#8300c4" fill-opacity="1"><g transform="translate(51.258536, 60.253168)"><g><path d="M 15.3125 0.59375 C 12.601562 0.59375 9.984375 0.226562 7.453125 -0.5 C 4.929688 -1.238281 2.90625 -2.195312 1.375 -3.375 L 4.0625 -9.34375 C 5.53125 -8.269531 7.273438 -7.40625 9.296875 -6.75 C 11.316406 -6.09375 13.335938 -5.765625 15.359375 -5.765625 C 17.609375 -5.765625 19.269531 -6.097656 20.34375 -6.765625 C 21.414062 -7.441406 21.953125 -8.332031 21.953125 -9.4375 C 21.953125 -10.25 21.632812 -10.925781 21 -11.46875 C 20.363281 -12.007812 19.546875 -12.441406 18.546875 -12.765625 C 17.554688 -13.085938 16.21875 -13.445312 14.53125 -13.84375 C 11.914062 -14.457031 9.773438 -15.070312 8.109375 -15.6875 C 6.453125 -16.3125 5.023438 -17.304688 3.828125 -18.671875 C 2.640625 -20.046875 2.046875 -21.875 2.046875 -24.15625 C 2.046875 -26.144531 2.582031 -27.945312 3.65625 -29.5625 C 4.738281 -31.175781 6.363281 -32.457031 8.53125 -33.40625 C 10.695312 -34.351562 13.347656 -34.828125 16.484375 -34.828125 C 18.671875 -34.828125 20.804688 -34.5625 22.890625 -34.03125 C 24.972656 -33.507812 26.796875 -32.765625 28.359375 -31.796875 L 25.921875 -25.78125 C 22.753906 -27.570312 19.59375 -28.46875 16.4375 -28.46875 C 14.21875 -28.46875 12.578125 -28.109375 11.515625 -27.390625 C 10.453125 -26.671875 9.921875 -25.722656 9.921875 -24.546875 C 9.921875 -23.378906 10.53125 -22.507812 11.75 -21.9375 C 12.976562 -21.363281 14.847656 -20.800781 17.359375 -20.25 C 19.972656 -19.625 22.109375 -19 23.765625 -18.375 C 25.429688 -17.757812 26.859375 -16.785156 28.046875 -15.453125 C 29.234375 -14.117188 29.828125 -12.3125 29.828125 -10.03125 C 29.828125 -8.070312 29.28125 -6.285156 28.1875 -4.671875 C 27.101562 -3.054688 25.46875 -1.773438 23.28125 -0.828125 C 21.09375 0.117188 18.4375 0.59375 15.3125 0.59375 Z M 15.3125 0.59375 "/></g></g></g><g fill="#ab00ff" fill-opacity="1"><g transform="translate(82.464033, 60.253168)"><g><path d="M 25.625 0 L 17.359375 -11.890625 L 9.25 0 L 0.140625 0 L 12.8125 -17.40625 L 0.78125 -34.234375 L 9.78125 -34.234375 L 17.65625 -23.125 L 25.375 -34.234375 L 33.9375 -34.234375 L 22.015625 -17.703125 L 34.765625 0 Z M 25.625 0 "/></g></g></g><g fill="#ffffff" fill-opacity="1"><g transform="translate(117.388927, 60.253168)"><g><path d="M 18.09375 -25.921875 C 20.507812 -25.921875 22.691406 -25.375 24.640625 -24.28125 C 26.597656 -23.1875 28.128906 -21.644531 29.234375 -19.65625 C 30.347656 -17.664062 30.90625 -15.398438 30.90625 -12.859375 C 30.90625 -10.285156 30.347656 -8.003906 29.234375 -6.015625 C 28.128906 -4.023438 26.609375 -2.484375 24.671875 -1.390625 C 22.734375 -0.296875 20.539062 0.25 18.09375 0.25 C 16.007812 0.25 14.125 -0.179688 12.4375 -1.046875 C 10.757812 -1.910156 9.382812 -3.175781 8.3125 -4.84375 L 8.3125 9.484375 L 4.84375 9.484375 L 4.84375 -25.71875 L 8.171875 -25.71875 L 8.171875 -20.640625 C 9.210938 -22.335938 10.585938 -23.640625 12.296875 -24.546875 C 14.015625 -25.460938 15.945312 -25.921875 18.09375 -25.921875 Z M 17.84375 -2.84375 C 19.644531 -2.84375 21.273438 -3.253906 22.734375 -4.078125 C 24.203125 -4.910156 25.351562 -6.09375 26.1875 -7.625 C 27.019531 -9.15625 27.4375 -10.898438 27.4375 -12.859375 C 27.4375 -14.816406 27.019531 -16.550781 26.1875 -18.0625 C 25.351562 -19.582031 24.203125 -20.765625 22.734375 -21.609375 C 21.273438 -22.460938 19.644531 -22.890625 17.84375 -22.890625 C 16.019531 -22.890625 14.382812 -22.460938 12.9375 -21.609375 C 11.488281 -20.765625 10.347656 -19.582031 9.515625 -18.0625 C 8.679688 -16.550781 8.265625 -14.816406 8.265625 -12.859375 C 8.265625 -10.898438 8.679688 -9.15625 9.515625 -7.625 C 10.347656 -6.09375 11.488281 -4.910156 12.9375 -4.078125 C 14.382812 -3.253906 16.019531 -2.84375 17.84375 -2.84375 Z M 17.84375 -2.84375 "/></g></g></g><g fill="#ffffff" fill-opacity="1"><g transform="translate(150.544391, 60.253168)"><g><path d="M 4.84375 -36.28125 L 8.3125 -36.28125 L 8.3125 0 L 4.84375 0 Z M 4.84375 -36.28125 "/></g></g></g><g fill="#ffffff" fill-opacity="1"><g transform="translate(163.698987, 60.253168)"><g><path d="M 15.359375 0.25 C 12.878906 0.25 10.644531 -0.3125 8.65625 -1.4375 C 6.664062 -2.5625 5.097656 -4.117188 3.953125 -6.109375 C 2.816406 -8.097656 2.25 -10.347656 2.25 -12.859375 C 2.25 -15.367188 2.816406 -17.617188 3.953125 -19.609375 C 5.097656 -21.597656 6.664062 -23.144531 8.65625 -24.25 C 10.644531 -25.363281 12.878906 -25.921875 15.359375 -25.921875 C 17.835938 -25.921875 20.070312 -25.363281 22.0625 -24.25 C 24.050781 -23.144531 25.609375 -21.597656 26.734375 -19.609375 C 27.859375 -17.617188 28.421875 -15.367188 28.421875 -12.859375 C 28.421875 -10.347656 27.859375 -8.097656 26.734375 -6.109375 C 25.609375 -4.117188 24.050781 -2.5625 22.0625 -1.4375 C 20.070312 -0.3125 17.835938 0.25 15.359375 0.25 Z M 15.359375 -2.84375 C 17.179688 -2.84375 18.816406 -3.253906 20.265625 -4.078125 C 21.722656 -4.910156 22.859375 -6.09375 23.671875 -7.625 C 24.484375 -9.15625 24.890625 -10.898438 24.890625 -12.859375 C 24.890625 -14.816406 24.484375 -16.5625 23.671875 -18.09375 C 22.859375 -19.625 21.722656 -20.804688 20.265625 -21.640625 C 18.816406 -22.472656 17.179688 -22.890625 15.359375 -22.890625 C 13.535156 -22.890625 11.894531 -22.472656 10.4375 -21.640625 C 8.988281 -20.804688 7.847656 -19.625 7.015625 -18.09375 C 6.179688 -16.5625 5.765625 -14.816406 5.765625 -12.859375 C 5.765625 -10.898438 6.179688 -9.15625 7.015625 -7.625 C 7.847656 -6.09375 8.988281 -4.910156 10.4375 -4.078125 C 11.894531 -3.253906 13.535156 -2.84375 15.359375 -2.84375 Z M 15.359375 -2.84375 "/></g></g></g><g fill="#ffffff" fill-opacity="1"><g transform="translate(194.360462, 60.253168)"><g><path d="M 8.171875 -20.6875 C 8.984375 -22.414062 10.195312 -23.71875 11.8125 -24.59375 C 13.425781 -25.476562 15.421875 -25.921875 17.796875 -25.921875 L 17.796875 -22.546875 L 16.96875 -22.59375 C 14.257812 -22.59375 12.140625 -21.757812 10.609375 -20.09375 C 9.078125 -18.4375 8.3125 -16.109375 8.3125 -13.109375 L 8.3125 0 L 4.84375 0 L 4.84375 -25.71875 L 8.171875 -25.71875 Z M 8.171875 -20.6875 "/></g></g></g><g fill="#ffffff" fill-opacity="1"><g transform="translate(213.970112, 60.253168)"><g><path d="M 27.234375 -11.78125 L 5.71875 -11.78125 C 5.914062 -9.113281 6.941406 -6.957031 8.796875 -5.3125 C 10.660156 -3.664062 13.007812 -2.84375 15.84375 -2.84375 C 17.4375 -2.84375 18.898438 -3.125 20.234375 -3.6875 C 21.578125 -4.257812 22.738281 -5.101562 23.71875 -6.21875 L 25.671875 -3.96875 C 24.535156 -2.59375 23.109375 -1.546875 21.390625 -0.828125 C 19.679688 -0.109375 17.800781 0.25 15.75 0.25 C 13.101562 0.25 10.757812 -0.3125 8.71875 -1.4375 C 6.6875 -2.5625 5.097656 -4.117188 3.953125 -6.109375 C 2.816406 -8.097656 2.25 -10.347656 2.25 -12.859375 C 2.25 -15.367188 2.796875 -17.617188 3.890625 -19.609375 C 4.984375 -21.597656 6.484375 -23.144531 8.390625 -24.25 C 10.296875 -25.363281 12.4375 -25.921875 14.8125 -25.921875 C 17.195312 -25.921875 19.332031 -25.363281 21.21875 -24.25 C 23.113281 -23.144531 24.597656 -21.601562 25.671875 -19.625 C 26.753906 -17.65625 27.296875 -15.398438 27.296875 -12.859375 Z M 14.8125 -22.9375 C 12.34375 -22.9375 10.265625 -22.144531 8.578125 -20.5625 C 6.898438 -18.976562 5.945312 -16.914062 5.71875 -14.375 L 23.96875 -14.375 C 23.738281 -16.914062 22.78125 -18.976562 21.09375 -20.5625 C 19.414062 -22.144531 17.320312 -22.9375 14.8125 -22.9375 Z M 14.8125 -22.9375 "/></g></g></g><g clip-path="url(#a9c76fb133)"><path fill="#ffffff" d="M 5.519531 51.945312 L 14.15625 51.945312 L 14.15625 60.683594 L 5.519531 60.683594 Z M 5.519531 51.945312 " fill-opacity="1" fill-rule="nonzero"/></g></svg>