<svg xmlns="http://www.w3.org/2000/svg" xmlns:xlink="http://www.w3.org/1999/xlink" width="178" zoomAndPan="magnify" viewBox="0 0 133.5 86.999996" height="116" preserveAspectRatio="xMidYMid meet" version="1.0"><defs><g/><clipPath id="5792e36cd2"><path d="M 5.25 51.929688 L 14.132812 51.929688 L 14.132812 60.636719 L 5.25 60.636719 Z M 5.25 51.929688 " clip-rule="nonzero"/></clipPath></defs><g fill="#4c00a4" fill-opacity="1"><g transform="translate(14.973097, 60.222815)"><g><path d="M 36.90625 -34.171875 L 22.109375 0 L 14.296875 0 L -0.4375 -34.171875 L 8.109375 -34.171875 L 18.5 -9.765625 L 29.046875 -34.171875 Z M 36.90625 -34.171875 "/></g></g></g><g fill="#8300c4" fill-opacity="1"><g transform="translate(51.399169, 60.222815)"><g><path d="M 15.28125 0.578125 C 12.582031 0.578125 9.96875 0.210938 7.4375 -0.515625 C 4.914062 -1.242188 2.890625 -2.195312 1.359375 -3.375 L 4.046875 -9.328125 C 5.515625 -8.253906 7.253906 -7.390625 9.265625 -6.734375 C 11.285156 -6.085938 13.304688 -5.765625 15.328125 -5.765625 C 17.566406 -5.765625 19.222656 -6.097656 20.296875 -6.765625 C 21.378906 -7.429688 21.921875 -8.316406 21.921875 -9.421875 C 21.921875 -10.234375 21.601562 -10.90625 20.96875 -11.4375 C 20.332031 -11.976562 19.515625 -12.410156 18.515625 -12.734375 C 17.523438 -13.066406 16.1875 -13.425781 14.5 -13.8125 C 11.894531 -14.425781 9.757812 -15.039062 8.09375 -15.65625 C 6.4375 -16.28125 5.015625 -17.273438 3.828125 -18.640625 C 2.640625 -20.015625 2.046875 -21.835938 2.046875 -24.109375 C 2.046875 -26.097656 2.582031 -27.894531 3.65625 -29.5 C 4.726562 -31.113281 6.347656 -32.390625 8.515625 -33.328125 C 10.679688 -34.273438 13.328125 -34.75 16.453125 -34.75 C 18.628906 -34.75 20.757812 -34.488281 22.84375 -33.96875 C 24.925781 -33.445312 26.75 -32.703125 28.3125 -31.734375 L 25.875 -25.71875 C 22.71875 -27.507812 19.5625 -28.40625 16.40625 -28.40625 C 14.1875 -28.40625 12.546875 -28.046875 11.484375 -27.328125 C 10.429688 -26.617188 9.90625 -25.675781 9.90625 -24.5 C 9.90625 -23.332031 10.515625 -22.460938 11.734375 -21.890625 C 12.953125 -21.316406 14.816406 -20.753906 17.328125 -20.203125 C 19.929688 -19.585938 22.0625 -18.96875 23.71875 -18.34375 C 25.382812 -17.726562 26.8125 -16.753906 28 -15.421875 C 29.1875 -14.085938 29.78125 -12.28125 29.78125 -10 C 29.78125 -8.050781 29.234375 -6.269531 28.140625 -4.65625 C 27.046875 -3.050781 25.410156 -1.773438 23.234375 -0.828125 C 21.054688 0.109375 18.40625 0.578125 15.28125 0.578125 Z M 15.28125 0.578125 "/></g></g></g><g fill="#ab00ff" fill-opacity="1"><g transform="translate(82.54813, 60.222815)"><g><path d="M 25.578125 0 L 17.328125 -11.859375 L 9.21875 0 L 0.140625 0 L 12.78125 -17.375 L 0.78125 -34.171875 L 9.765625 -34.171875 L 17.625 -23.09375 L 25.328125 -34.171875 L 33.875 -34.171875 L 21.96875 -17.671875 L 34.703125 0 Z M 25.578125 0 "/></g></g></g><g clip-path="url(#5792e36cd2)"><path fill="#ffffff" d="M 5.25 51.929688 L 14.132812 51.929688 L 14.132812 60.636719 L 5.25 60.636719 Z M 5.25 51.929688 " fill-opacity="1" fill-rule="nonzero"/></g></svg>